<svg width="39" height="53" viewBox="0 0 39 53" fill="none" xmlns="http://www.w3.org/2000/svg">
<path d="M39 14.9576C39 10.3984 35.3641 6.70569 30.875 6.70569C26.3859 6.70569 22.75 10.3984 22.75 14.9576C22.75 18.7123 25.218 21.879 28.5898 22.8795C28.5289 24.5402 28.1633 25.8193 27.4727 26.6857C25.9086 28.6662 22.4656 28.9963 18.8195 29.3367C15.9555 29.6049 12.9898 29.8937 10.5625 31.0799V16.2264C13.8633 15.1743 16.25 12.0488 16.25 8.35608C16.25 3.79687 12.6141 0.104126 8.125 0.104126C3.63594 0.104126 0 3.79687 0 8.35608C0 12.0488 2.38672 15.1743 5.6875 16.2264V36.7841C2.38672 37.8465 0 40.9719 0 44.6647C0 49.2239 3.63594 52.9166 8.125 52.9166C12.6141 52.9166 16.25 49.2239 16.25 44.6647C16.25 41.1576 14.0969 38.1559 11.05 36.9697C11.3648 36.4333 11.8422 35.9589 12.5633 35.5875C14.2086 34.7417 16.6664 34.5148 19.2766 34.2672C23.5625 33.8649 28.4172 33.4008 31.2812 29.7905C32.7031 27.9957 33.4242 25.6852 33.475 22.7867C36.6844 21.6727 39 18.5885 39 14.9576ZM8.125 6.70569C9.01875 6.70569 9.75 7.44836 9.75 8.35608C9.75 9.26379 9.01875 10.0065 8.125 10.0065C7.23125 10.0065 6.5 9.26379 6.5 8.35608C6.5 7.44836 7.23125 6.70569 8.125 6.70569ZM8.125 46.3151C7.23125 46.3151 6.5 45.5724 6.5 44.6647C6.5 43.757 7.23125 43.0143 8.125 43.0143C9.01875 43.0143 9.75 43.757 9.75 44.6647C9.75 45.5724 9.01875 46.3151 8.125 46.3151ZM30.875 13.3073C31.7687 13.3073 32.5 14.0499 32.5 14.9576C32.5 15.8654 31.7687 16.608 30.875 16.608C29.9813 16.608 29.25 15.8654 29.25 14.9576C29.25 14.0499 29.9813 13.3073 30.875 13.3073Z" fill="white"/>
</svg>
