<svg class="instructions__sprite" width="40" height="41" viewBox="0 0 40 41" fill="none" xmlns="http://www.w3.org/2000/svg">
<path d="M3.75 0C1.67891 0 0 1.70514 0 3.80859V26.6602C0 28.7636 1.67891 30.4688 3.75 30.4688H26.25C28.3211 30.4688 30 28.7636 30 26.6602V3.80859C30 1.70514 28.3211 0 26.25 0H3.75ZM26.25 33.0078C29.6962 33.0078 32.5 30.1603 32.5 26.6602V10.1562H36.25C38.3211 10.1562 40 11.8614 40 13.9648V36.8164C40 38.9199 38.3211 40.625 36.25 40.625H13.75C11.6789 40.625 10 38.9199 10 36.8164V33.0078H26.25Z" fill="white"/>
</svg>
