<svg width="55" height="43" viewBox="0 0 55 43" fill="none" xmlns="http://www.w3.org/2000/svg">
<path d="M44.6875 42.0366H35.6641C34.9551 42.0366 34.375 41.449 34.375 40.7309V36.3787C34.375 35.6606 34.9551 35.073 35.6641 35.073H44.6875C46.5889 35.073 48.125 33.5171 48.125 31.5913V10.7007C48.125 8.77482 46.5889 7.2189 44.6875 7.2189H35.6641C34.9551 7.2189 34.375 6.63135 34.375 5.91324V1.56103C34.375 0.842919 34.9551 0.255371 35.6641 0.255371H44.6875C50.3809 0.255371 55 4.93399 55 10.7007V31.5913C55 37.3579 50.3809 42.0366 44.6875 42.0366ZM39.6387 20.1667L21.5918 1.88745C19.9805 0.255371 17.1875 1.39783 17.1875 3.73714V14.1824H2.57812C1.14941 14.1824 0 15.3466 0 16.7938V27.2391C0 28.6862 1.14941 29.8504 2.57812 29.8504H17.1875V40.2957C17.1875 42.635 19.9805 43.7774 21.5918 42.1454L39.6387 23.8661C40.6377 22.8433 40.6377 21.1895 39.6387 20.1667Z" fill="white"/>
</svg>
