<svg width="37" height="36" viewBox="0 0 37 36" fill="none" xmlns="http://www.w3.org/2000/svg">
<path d="M15.7315 2.41127L17.5648 0.581177C18.341 -0.193726 19.5963 -0.193726 20.3642 0.581177L36.4178 16.5986C37.1941 17.3735 37.1941 18.6265 36.4178 19.3932L20.3642 35.4188C19.588 36.1937 18.3328 36.1937 17.5648 35.4188L15.7315 33.5887C14.947 32.8056 14.9635 31.5278 15.7645 30.7612L25.7154 21.2975H1.98192C0.883607 21.2975 0 20.4154 0 19.319V16.681C0 15.5846 0.883607 14.7025 1.98192 14.7025H25.7154L15.7645 5.23884C14.9553 4.47218 14.9387 3.19441 15.7315 2.41127Z" fill="white"/>
</svg>